<?xml version="1.0" encoding="UTF-8"?>
<svg id="Layer_2" xmlns="http://www.w3.org/2000/svg" viewBox="0 0 446.4 446.4">
  <defs>
    <style>
      .cls-1 {
        fill: #2b2b2b;
      }

      .cls-2 {
        fill: #f5d000;
      }
    </style>
  </defs>
  <g id="Layer_2-2" data-name="Layer_2">
    <rect class="cls-1" width="446.4" height="446.4"/>
    <path class="cls-2" d="M223.18,409.41c-7.52,0-15.14-.46-22.65-1.36l-1.38-.17v-1.39c.09-15.79.16-34.6.23-50.41v-1.84s1.83.31,1.83.31c3.6.62,7.37,1.08,11.23,1.39l1.66.13.51-34.38-1.43-.14c-8.22-.81-16.32-2.68-24.09-5.54l-1.4-.51s-12.62,29.83-15.21,35.96l-4.25,10.01-1.41-.58c-3.62-1.46-7.33-3.16-11.04-5.06-.78-.38-1.55-.78-2.29-1.17l-1.36-.71-.82,1.31c-2.39,4.42-5.05,9.36-7.71,14.29-3.01,5.6-6,11.17-8.56,15.87l-.75,1.39-1.38-.76c-2.98-1.64-5.91-3.38-8.72-5.16l-1.25-.79,1.76-3.12,16.55-29.62-1.2-.8c-1.57-1.05-3.13-2.15-4.64-3.26l-1.25-.93,9.23-12.54,1.26.92c4.11,3.01,11.77,7.51,14.88,9.31l1.48.85.72-1.55c3.52-7.56,8.77-18.94,12.68-27.41l1.04-2.26-1.24-.71c-15.62-8.91-29.04-22.57-37.77-38.46l-.69-1.25-1.31.57c-13.51,5.93-28.32,12.47-42.66,18.8l-21.8,9.6.74,1.47c4,7.94,8.68,15.64,13.9,22.88l.91,1.28-1.28.9c-2.44,1.74-7.11,5.08-10.12,7.29l-1.26.92-.92-1.27c-8.56-11.87-15.69-24.72-21.19-38.21l-.59-1.43,1.42-.6c13.01-5.51,26.02-11.01,39.03-16.54,12.89-5.48,25.77-10.94,38.64-16.38l1.36-.58-.5-1.39c-3.03-8.4-4.9-17.22-5.56-26.22l-.11-1.47-1.47.02c-6.04.08-12.46.16-18.94.22-9.58.12-19.27.23-28.02.33l-1.53.02-.05-1.53c-.14-4.53-.09-8.94.15-13.11l.1-1.64h-1.64c-4.42-.05-10.21-.12-15.16-.18l-5.07-.06-.08,1.5c-.55,10.76-.04,22.05,1.46,32.64l.21,1.45-1.44.3c-2.15.44-8.58,1.77-12.22,2.56l-1.62.35-.25-1.65c-2.39-16.05-2.59-33.2-.59-49.59l.16-1.38h1.38c15.79.09,34.62.16,50.41.23h1.84s-.31,1.83-.31,1.83c-.59,3.45-1.05,7.23-1.39,11.22l-.14,1.67,34.4.51.14-1.43c.81-8.25,2.68-16.36,5.54-24.09l.52-1.4-45.99-19.46.58-1.41c1.57-3.83,3.27-7.54,5.06-11.04.4-.8.81-1.59,1.22-2.37l.73-1.37-5.33-2.87c-2.91-1.56-5.96-3.21-9.03-4.87l-.66-.35c-5.82-3.13-11.63-6.25-16.53-8.91l-1.39-.75.76-1.38c1.63-2.95,3.37-5.88,5.16-8.72l.8-1.25,6.94,3.88c4.53,2.54,9.47,5.3,14.27,7.99l11.52,6.44.8-1.2c1.05-1.57,2.15-3.13,3.26-4.64l.93-1.25,12.54,9.24-.91,1.26c-3.15,4.3-7.93,12.47-9.33,14.88l-.85,1.48,1.55.72c3.82,1.77,8.63,4,13.54,6.27l16.07,7.42.71-1.24c7.5-13.09,18-24.44,30.38-32.82,2.51-1.73,5.13-3.34,8.02-4.93l1.25-.69-.58-1.31c-7.43-16.88-15.77-35.82-23.51-53.34l-4.89-11.08-1.46.74c-7.92,3.97-15.62,8.65-22.88,13.89l-1.27.91-.92-1.28c-1.72-2.42-5.07-7.09-7.26-10.1l-.93-1.27,1.27-.92c11.91-8.58,24.77-15.71,38.22-21.19l1.42-.58.6,1.42c5.16,12.19,10.33,24.38,15.5,36.57l1.9,4.47c3.64,8.55,7.26,17.11,10.89,25.68l5.21,12.29,1.68-.64,1.11-.33c8.04-2.75,16.39-4.46,24.82-5.07l1.46-.11-.22-19.1c-.12-10-.25-20.17-.34-29.33l-.02-1.53,1.53-.05c1.6-.05,3.18-.07,4.75-.07,2.78,0,5.59.08,8.36.23l1.63.09.24-21.86-1.5-.08c-2.82-.14-5.71-.22-8.58-.22-8.12,0-16.21.57-24.05,1.68l-1.45.21-.3-1.45c-.44-2.15-1.76-8.57-2.55-12.2l-.35-1.64,1.65-.25c8.71-1.29,17.77-1.95,26.91-1.95,7.62,0,15.25.46,22.66,1.37l1.38.16v1.38c-.09,15.79-.16,34.62-.23,50.41v1.84s-1.83-.31-1.83-.31c-3.4-.58-7.18-1.05-11.22-1.39l-1.67-.14-.51,34.4,1.43.14c8.26.81,16.37,2.68,24.1,5.54l1.4.52.58-1.38c1.57-3.74,3.34-7.92,5.18-12.28l13.68-32.34,1.43.59c3.75,1.53,7.46,3.24,11.04,5.06.8.39,1.58.81,2.34,1.22l1.37.74,17.76-32.95,1.38.76c2.96,1.64,5.89,3.38,8.72,5.16l1.25.8-3.68,6.58c-4.47,7.98-9.66,17.25-13.92,24.89l-.69,1.25,1.18.8c1.65,1.12,3.2,2.22,4.63,3.27l1.26.93-9.24,12.53-1.26-.92c-3.62-2.64-10.09-6.52-14.88-9.31l-1.48-.86-.72,1.55c-2.62,5.63-6.21,13.4-9.47,20.49l-4.17,9.02,1.24.71c15.64,8.91,29.08,22.58,37.84,38.49l.69,1.25,1.31-.57c18.99-8.35,40.56-17.86,59.82-26.36l4.62-2.03-.74-1.47c-3.99-7.91-8.66-15.61-13.89-22.88l-.92-1.27,1.28-.91c2.43-1.72,7.11-5.08,10.11-7.27l1.27-.93.91,1.26c8.58,11.91,15.71,24.77,21.2,38.23l.58,1.42-1.41.59c-12.49,5.29-24.97,10.58-37.45,15.89-8.92,3.77-17.83,7.55-26.74,11.33l-14.85,6.3.5,1.39c3.03,8.36,4.9,17.18,5.56,26.2l.11,1.46s43.06-.51,48.42-.56l1.53-.02.05,1.53c.14,4.55.09,8.96-.15,13.11l-.1,1.63,21.87.24.08-1.5c.55-10.84.05-22.12-1.46-32.63l-.21-1.46,1.45-.3c2.15-.44,8.57-1.76,12.21-2.55l1.62-.35.25,1.65c2.39,15.98,2.6,33.12.6,49.58l-.17,1.38h-1.39c-15.79-.09-34.6-.16-50.41-.23h-1.84s.31-1.83.31-1.83c.61-3.58,1.08-7.36,1.39-11.23l.13-1.66-34.38-.51-.14,1.43c-.83,8.27-2.69,16.38-5.54,24.11l-.51,1.4,45.97,19.45-.59,1.43c-1.5,3.7-3.2,7.41-5.06,11.01-.34.71-.68,1.37-1.02,2.01l-.9,1.73,1.35.73c4.18,2.26,8.83,4.77,13.51,7.29l18.05,9.73-.77,1.38c-1.74,3.14-3.48,6.08-5.16,8.71l-.79,1.25-9.99-5.58c-7.13-3.99-14.91-8.35-21.5-12.01l-1.26-.7-.8,1.19c-.94,1.41-2.01,2.92-3.26,4.62l-.93,1.26-12.53-9.24.92-1.26c3-4.1,7.51-11.77,9.31-14.88l.85-1.48-1.55-.72c-7.93-3.68-20.05-9.28-28.32-13.09l-1.28-.59-1.45,2.47-.53.89c-1.48,2.49-3.27,5.15-5.47,8.12-1.99,2.62-3.83,4.86-5.63,6.84-.39.45-.75.85-1.14,1.25-.28.3-.55.59-.81.89l-.96.97c-2.83,2.91-5.88,5.66-9.06,8.19l-.59.47v.8h-1.11s-.03.04-.03.04h-.19l-.48.65-.29.12-1.77,1.29c-3.07,2.18-6.36,4.24-9.75,6.12l-1.25.69.57,1.3c8.27,18.8,17.68,40.14,26.1,59.24l2.3,5.22,1.47-.74c7.91-3.99,15.61-8.66,22.88-13.89l1.27-.91.92,1.28c1.73,2.43,5.08,7.11,7.28,10.11l.92,1.27-1.27.91c-11.91,8.59-24.76,15.72-38.21,21.2l-1.43.59-.6-1.42c-4.53-10.72-9.08-21.44-13.64-32.17l-7.13-16.8c-4.06-9.57-8.11-19.14-12.15-28.7l-.58-1.36-1.39.5c-8.35,3.03-17.17,4.9-26.21,5.56l-1.46.11s.51,43.05.56,48.42l.02,1.53-1.53.05c-1.65.05-3.29.08-4.92.08-2.8,0-5.55-.08-8.19-.23l-1.64-.1v1.64c-.05,4.59-.12,10.66-.18,15.72l-.05,4.52,1.5.08c2.86.14,5.77.22,8.67.22,8.15,0,16.21-.57,23.97-1.68l1.45-.2.3,1.44c.44,2.15,1.77,8.58,2.56,12.22l.35,1.62-1.65.25c-8.76,1.3-17.82,1.96-26.94,1.96ZM228.56,291.44l.18,14.86,1.67-.14c6.78-.59,13.47-2.01,19.89-4.23l1.58-.55-.66-1.54c-2.12-4.96-4.23-9.94-6.33-14.91l-4.01-9.47c-2.18-5.14-4.36-10.27-6.54-15.39,3.72-1.12,7.22-2.79,10.45-4.98,3.99,9.04,8.39,19.03,12.62,28.65l5.57,12.63,1.51-.88c.65-.38,1.28-.75,1.88-1.13l2.11-1.31.3-.2c1.91-1.25,3.97-2.74,6.63-4.81,1.98-1.64,4.48-3.77,6.64-6.01l.92-.94c2.02-2.07,3.89-4.2,5.56-6.33l.33-.42v-.05l.34-.44c.07-.08.18-.21.29-.36l.58-.76c1.58-2.09,3.1-4.36,4.64-6.93l.89-1.48-1.56-.73c-5.23-2.44-10.47-4.86-15.72-7.28l-5.31-2.45c-6.11-2.81-12.22-5.64-18.32-8.46,2.25-3.18,3.98-6.64,5.16-10.33l41.3,17.47.55-1.56c2.04-5.78,3.44-11.76,4.17-17.79l.21-1.72-45.11-.67c.5-2.49.75-5.02.75-7.56,0-1.71-.12-3.44-.35-5.17,5.3-.05,44.95-.49,44.95-.49l-.15-1.68c-.4-4.5-1.16-8.92-2.32-13.51-.52-2-1.14-4.08-1.91-6.37l-.54-1.6-16.42,6.96c-8.32,3.52-16.66,7.05-24.95,10.58-1.13-3.71-2.81-7.2-5.02-10.42,8.44-3.72,39.74-17.51,39.74-17.51l1.59-.7-.87-1.51c-7.17-12.46-17.43-22.9-29.68-30.2l-1.49-.89-5.59,12.12c-3.18,6.86-6.35,13.73-9.52,20.61-.79,1.68-1.59,3.41-2.39,5.13,0,0-1.05,2.27-1.45,3.15-3.18-2.24-6.64-3.97-10.32-5.16l17.46-41.29-1.55-.56c-5.54-2-11.53-3.41-17.8-4.17l-1.72-.21-.67,45.11c-2.48-.5-5.02-.74-7.55-.74-1.71,0-3.44.12-5.18.36-.1-9.55-.49-44.94-.49-44.94l-1.68.14c-6.79.59-13.48,2-19.91,4.21l-1.59.55.66,1.54c2.66,6.23,5.3,12.47,7.95,18.72l.21.5c2.91,6.88,5.83,13.75,8.74,20.6-3.71,1.13-7.2,2.82-10.42,5.02-3.78-8.56-17.53-39.76-17.53-39.76l-2.99.63.72-1.29.05-.04s-.03.01-.04.02l-.03.02c-1.22.69-2.42,1.42-3.67,2.23l-.71.46v.2l-.33.15-.18.35h-.54s-.38.26-.38.26c-.25.16-.44.29-.61.44l-.13.09c-.59.4-1.19.84-1.76,1.28-.74.55-1.45,1.08-2.12,1.65l-.17.14-.02.02-.43.33-.07.07-.67.47v.06c-1.58,1.29-3.2,2.76-4.95,4.49l-1.27,1.24c-1.68,1.7-3.22,3.48-4.5,4.99l-.32.38c-2.65,3.19-5.08,6.63-7.23,10.22l-.89,1.49,1.57.73c10.37,4.81,20.72,9.58,31.09,14.37,1.85.86,3.63,1.69,5.4,2.5,0,0,2.54,1.17,2.96,1.37-2.25,3.17-3.99,6.63-5.2,10.32l-41.34-17.5-.55,1.57c-1.3,3.71-2.36,7.53-3.13,11.36l-.38,1.87h.04c-.24,1.24-.46,2.66-.69,4.55l-.21,1.73,45.14.67c-.51,2.52-.77,5.1-.77,7.69,0,1.66.11,3.35.34,5.04l-30.27.33-14.66.18.15,1.68c.4,4.55,1.18,9.1,2.32,13.52.47,1.9,1.1,3.99,1.91,6.37l.54,1.59,1.55-.66c4.03-1.72,8.06-3.43,12.1-5.14l8.83-3.74c6.29-2.66,12.58-5.32,18.84-8,1.12,3.72,2.79,7.22,4.98,10.44l-12.48,5.5c-9.2,4.07-19.2,8.49-27.19,12l-1.59.7.87,1.51c7.13,12.42,17.37,22.85,29.62,30.16l1.49.89.73-1.57c3.11-6.71,6.2-13.41,9.3-20.11l8.89-19.24c3.17,2.25,6.63,4,10.31,5.2l-8.4,19.83c-2.88,6.8-5.77,13.62-8.45,19.99l-.64,1.52,1.56.55c5.71,2.02,11.69,3.42,17.79,4.17l1.72.21.67-45.14c2.52.51,5.11.77,7.7.77,1.66,0,3.35-.11,5.03-.34.1,9.49.22,19.95.33,30.06Z"/>
  </g>
</svg>