<?xml version="1.0" encoding="UTF-8"?>
<svg id="Layer_2" xmlns="http://www.w3.org/2000/svg" viewBox="0 0 112.35 76.63">
  <defs>
    <style>
      .cls-1 {
        fill: #f5d000;
      }
    </style>
  </defs>
  <g id="Layer_1-2" data-name="Layer_1">
    <g>
      <path class="cls-1" d="M56.06,76.63c-16.14,0-32.27,0-48.41,0-5.01,0-7.42-2.59-7.64-7.62-.12-2.74.7-4.49,2.92-6.22,9.42-7.36,18.68-14.91,27.94-22.48,1.15-.94,1.96-.93,3.19-.28,6.88,3.6,13.82,7.09,20.71,10.67.98.51,1.74.52,2.73,0,6.99-3.64,14.03-7.19,21.02-10.83,1.01-.53,1.67-.54,2.61.22,9.95,8.09,19.94,16.13,29.95,24.15.87.69,1.26,1.4,1.15,2.49-.09.86-.02,1.74-.02,2.61-.01,4.56-2.7,7.27-7.23,7.28-16.31,0-32.62,0-48.93,0Z"/>
      <path class="cls-1" d="M56.18,0c16.19,0,32.37,0,48.56,0,4.88,0,7.21,2.65,7.58,7.53.25,3.32-1.03,4.77-3.86,6.19-16.93,8.49-33.76,17.19-50.6,25.86-1.19.61-2.11.68-3.33.05C36.97,30.59,19.39,21.58,1.78,12.63.43,11.94-.15,11.2.05,9.73c.11-.8.02-1.62.02-2.43C.09,2.67,2.77,0,7.45,0,23.7,0,39.94,0,56.18,0Z"/>
      <path class="cls-1" d="M25.91,35.88C17.23,42.88,8.82,49.67.18,56.63V22.73c8.55,4.37,16.99,8.69,25.73,13.15Z"/>
      <path class="cls-1" d="M86.39,35.89c8.68-4.44,17.1-8.76,25.71-13.16v33.9c-8.6-6.93-17.01-13.71-25.71-20.73Z"/>
    </g>
  </g>
</svg>