<?xml version="1.0" encoding="UTF-8"?>
<svg id="Layer_2" xmlns="http://www.w3.org/2000/svg" viewBox="0 0 468.88 468.86">
  <defs>
    <style>
      .cls-1 {
        fill: #f5d000;
      }
    </style>
  </defs>
  <g id="Layer_1-2" data-name="Layer_1">
    <path class="cls-1" d="M234.42,468.86c-9.47,0-19.07-.58-28.52-1.71l-1.74-.21v-1.75c.11-19.88.21-43.57.28-63.46v-2.31s2.3.39,2.3.39c4.53.77,9.28,1.36,14.14,1.75l2.09.17.65-43.28-1.8-.18c-10.34-1.02-20.55-3.37-30.33-6.98l-1.76-.65s-15.89,37.55-19.15,45.27l-5.35,12.6-1.78-.73c-4.56-1.84-9.23-3.98-13.89-6.37-.98-.48-1.95-.99-2.89-1.47l-1.71-.89-1.03,1.64c-3.01,5.56-6.36,11.79-9.71,17.99-3.79,7.05-7.56,14.06-10.78,19.99l-.95,1.75-1.74-.96c-3.75-2.07-7.44-4.25-10.97-6.5l-1.57-.99,2.21-3.93,20.84-37.29-1.51-1.01c-1.97-1.32-3.94-2.7-5.84-4.11l-1.57-1.17,11.62-15.78,1.58,1.16c5.17,3.79,14.82,9.46,18.74,11.72l1.86,1.08.91-1.95c4.43-9.52,11.04-23.85,15.97-34.51l1.31-2.84-1.57-.89c-19.67-11.22-36.56-28.41-47.55-48.42l-.87-1.57-1.64.72c-17.01,7.46-35.65,15.7-53.7,23.67l-27.44,12.09.93,1.85c5.03,9.99,10.92,19.68,17.5,28.8l1.15,1.61-1.61,1.14c-3.07,2.19-8.96,6.4-12.74,9.17l-1.58,1.15-1.16-1.6c-10.78-14.94-19.75-31.13-26.68-48.1l-.74-1.8,1.79-.76c16.38-6.93,32.76-13.87,49.14-20.82,16.22-6.89,32.45-13.77,48.65-20.62l1.71-.73-.63-1.75c-3.81-10.57-6.17-21.68-7-33.01l-.13-1.85-1.85.02c-7.6.1-15.69.2-23.84.28-12.06.16-24.26.29-35.28.41l-1.92.02-.06-1.93c-.18-5.7-.11-11.25.19-16.5l.12-2.06-2.07-.02c-5.57-.05-12.86-.13-19.08-.2l-6.39-.07-.1,1.89c-.69,13.55-.05,27.76,1.84,41.09l.27,1.83-1.82.37c-2.71.55-10.8,2.22-15.38,3.23l-2.04.44-.32-2.08c-3.01-20.21-3.26-41.8-.74-62.43l.21-1.74h1.74c19.88.11,43.58.21,63.46.29h2.32s-.39,2.3-.39,2.3c-.74,4.34-1.33,9.1-1.75,14.13l-.18,2.1,43.31.65.18-1.8c1.02-10.39,3.37-20.59,6.98-30.33l.65-1.76-57.9-24.5.73-1.78c1.97-4.82,4.12-9.5,6.37-13.9.5-1.01,1.02-2,1.54-2.98l.91-1.72-6.71-3.61c-3.66-1.97-7.51-4.04-11.36-6.13l-.83-.45c-7.32-3.94-14.64-7.87-20.81-11.22l-1.75-.95.96-1.74c2.05-3.71,4.24-7.4,6.5-10.98l1-1.57,8.73,4.89c5.7,3.2,11.92,6.67,17.97,10.05l14.51,8.11,1.01-1.51c1.32-1.97,2.7-3.94,4.11-5.84l1.17-1.57,15.79,11.63-1.15,1.58c-3.96,5.41-9.99,15.7-11.74,18.73l-1.08,1.86,1.95.91c4.81,2.23,10.86,5.03,17.04,7.89l20.23,9.34.89-1.56c9.44-16.48,22.66-30.77,38.25-41.32,3.16-2.18,6.46-4.21,10.1-6.21l1.57-.87-.73-1.65c-9.35-21.25-19.86-45.1-29.6-67.16l-6.16-13.95-1.84.93c-9.97,5-19.66,10.88-28.81,17.48l-1.6,1.15-1.15-1.62c-2.16-3.04-6.39-8.92-9.14-12.72l-1.17-1.6,1.6-1.16c14.99-10.8,31.18-19.78,48.12-26.68l1.78-.73.75,1.78c6.49,15.35,13,30.7,19.51,46.04l2.39,5.63c4.58,10.76,9.14,21.55,13.71,32.32l6.55,15.47,2.12-.81,1.4-.41c10.12-3.46,20.63-5.61,31.24-6.38l1.84-.13-.28-24.04c-.16-12.59-.31-25.39-.43-36.92l-.02-1.93,1.93-.06c2.01-.06,4-.09,5.98-.09,3.5,0,7.04.1,10.52.29l2.05.11.3-27.53-1.89-.1c-3.55-.18-7.19-.27-10.81-.27-10.22,0-20.41.71-30.28,2.12l-1.83.27-.37-1.82c-.55-2.71-2.22-10.79-3.2-15.36l-.44-2.06,2.08-.32c10.97-1.63,22.37-2.46,33.88-2.46,9.6,0,19.2.58,28.53,1.72l1.74.21v1.74c-.11,19.88-.21,43.58-.29,63.46v2.32s-2.3-.39-2.3-.39c-4.28-.73-9.04-1.32-14.13-1.75l-2.1-.18-.65,43.31,1.8.18c10.39,1.02,20.6,3.37,30.34,6.98l1.76.65.73-1.73c1.98-4.71,4.21-9.97,6.53-15.46l17.23-40.71,1.8.74c4.72,1.93,9.4,4.08,13.89,6.37,1.01.49,1.99,1.01,2.95,1.53l1.73.93,22.36-41.48,1.74.96c3.73,2.06,7.42,4.25,10.98,6.5l1.58,1.01-4.64,8.29c-5.62,10.04-12.16,21.72-17.52,31.34l-.87,1.57,1.48,1.01c2.07,1.41,4.03,2.8,5.83,4.12l1.58,1.17-11.64,15.78-1.58-1.16c-4.55-3.32-12.7-8.21-18.73-11.72l-1.86-1.08-.91,1.95c-3.3,7.09-7.82,16.87-11.93,25.8l-5.25,11.36,1.57.89c19.69,11.22,36.61,28.43,47.65,48.46l.87,1.57,1.64-.72c23.9-10.51,51.07-22.49,75.31-33.19l5.82-2.56-.93-1.85c-5.02-9.96-10.9-19.65-17.48-28.8l-1.16-1.6,1.61-1.15c3.06-2.16,8.95-6.39,12.72-9.15l1.6-1.17,1.14,1.59c10.8,14.99,19.78,31.18,26.69,48.13l.73,1.79-1.77.74c-15.72,6.66-31.43,13.32-47.15,20-11.22,4.75-22.45,9.51-33.67,14.27l-18.7,7.93.63,1.75c3.81,10.53,6.16,21.62,7,32.98l.13,1.84s54.21-.64,60.96-.71l1.92-.02.06,1.93c.18,5.72.11,11.27-.19,16.5l-.12,2.06,27.53.3.1-1.89c.7-13.64.06-27.85-1.84-41.07l-.27-1.84,1.82-.37c2.71-.55,10.79-2.22,15.37-3.2l2.04-.44.32,2.08c3.01,20.11,3.27,41.7.76,62.42l-.22,1.74h-1.75c-19.88-.11-43.57-.21-63.46-.28h-2.32s.39-2.3.39-2.3c.77-4.5,1.36-9.26,1.75-14.14l.17-2.09-43.28-.65-.18,1.8c-1.04,10.41-3.39,20.62-6.98,30.35l-.65,1.76,57.88,24.49-.74,1.8c-1.89,4.66-4.03,9.32-6.37,13.87-.43.89-.86,1.72-1.29,2.53l-1.13,2.18,1.7.92c5.26,2.85,11.12,6.01,17.01,9.17l22.72,12.25-.96,1.74c-2.19,3.96-4.38,7.65-6.5,10.97l-1,1.58-12.58-7.03c-8.97-5.03-18.78-10.51-27.07-15.13l-1.58-.88-1.01,1.5c-1.19,1.77-2.53,3.68-4.11,5.82l-1.17,1.58-15.78-11.64,1.16-1.58c3.78-5.16,9.46-14.82,11.72-18.74l1.08-1.86-1.95-.91c-9.98-4.63-25.24-11.69-35.65-16.48l-1.61-.74-1.83,3.11-.67,1.12c-1.86,3.14-4.12,6.48-6.88,10.23-2.51,3.3-4.83,6.12-7.08,8.61-.49.57-.95,1.07-1.43,1.57-.36.38-.69.74-1.01,1.12l-1.21,1.22c-3.56,3.66-7.4,7.13-11.41,10.31l-.74.59v1h-1.39s-.04.04-.04.04h-.24l-.6.82-.37.16-2.23,1.63c-3.86,2.74-8,5.34-12.28,7.7l-1.57.87.72,1.64c10.41,23.67,22.25,50.54,32.86,74.58l2.9,6.57,1.85-.93c9.96-5.02,19.65-10.9,28.8-17.48l1.6-1.15,1.15,1.61c2.18,3.06,6.39,8.95,9.17,12.73l1.15,1.59-1.6,1.15c-14.99,10.82-31.17,19.79-48.11,26.69l-1.8.74-.76-1.79c-5.7-13.5-11.44-27-17.17-40.51l-8.97-21.15c-5.11-12.04-10.21-24.09-15.3-36.13l-.73-1.72-1.75.63c-10.51,3.81-21.61,6.17-33,7l-1.84.13s.64,54.2.71,60.96l.02,1.92-1.93.06c-2.08.07-4.14.1-6.19.1-3.52,0-6.99-.1-10.31-.29l-2.06-.12-.02,2.06c-.05,5.78-.14,13.43-.21,19.79l-.07,5.69,1.89.1c3.59.18,7.27.27,10.91.27,10.26,0,20.41-.71,30.18-2.12l1.82-.26.37,1.81c.55,2.71,2.22,10.8,3.23,15.38l.44,2.04-2.08.31c-11.02,1.64-22.44,2.47-33.92,2.47ZM241.19,320.35l.22,18.71,2.11-.18c8.53-.74,16.96-2.53,25.04-5.32l1.99-.69-.83-1.94c-2.67-6.24-5.32-12.51-7.97-18.77l-5.05-11.93c-2.74-6.47-5.48-12.94-8.23-19.37,4.69-1.41,9.09-3.51,13.15-6.27,5.02,11.38,10.56,23.96,15.89,36.06l7.02,15.9,1.9-1.11c.82-.48,1.61-.95,2.37-1.43l2.65-1.65.38-.26c2.41-1.57,4.99-3.45,8.34-6.06,2.49-2.06,5.64-4.75,8.36-7.57l1.16-1.18c2.55-2.6,4.9-5.28,7-7.97l.42-.53v-.06l.43-.55c.09-.1.23-.27.36-.45l.73-.96c1.99-2.63,3.9-5.48,5.84-8.73l1.11-1.87-1.97-.92c-6.58-3.07-13.18-6.12-19.79-9.17l-6.69-3.09c-7.7-3.54-15.39-7.09-23.07-10.65,2.83-4,5.01-8.36,6.5-13l52,21.99.69-1.97c2.56-7.27,4.33-14.81,5.24-22.39l.26-2.17-56.79-.85c.63-3.13.94-6.32.94-9.52,0-2.15-.15-4.33-.44-6.51,6.68-.07,56.6-.62,56.6-.62l-.19-2.11c-.5-5.67-1.46-11.23-2.92-17.01-.65-2.52-1.43-5.14-2.4-8.02l-.68-2.01-20.67,8.76c-10.48,4.43-20.98,8.88-31.42,13.32-1.43-4.67-3.54-9.07-6.31-13.12,10.63-4.69,50.03-22.05,50.03-22.05l2-.88-1.09-1.9c-9.02-15.69-21.94-28.83-37.37-38.02l-1.87-1.12-7.04,15.26c-4,8.64-7.99,17.29-11.98,25.95-1,2.12-2,4.29-3.01,6.46,0,0-1.32,2.86-1.83,3.97-4-2.82-8.36-5-13-6.49l21.98-51.98-1.95-.71c-6.98-2.52-14.51-4.29-22.41-5.25l-2.17-.26-.85,56.79c-3.13-.62-6.32-.94-9.51-.94-2.15,0-4.34.15-6.52.45-.13-12.02-.62-56.58-.62-56.58l-2.11.18c-8.54.74-16.98,2.52-25.06,5.31l-2,.69.83,1.94c3.35,7.84,6.68,15.7,10.01,23.56l.26.63c3.67,8.66,7.33,17.31,11,25.94-4.67,1.43-9.07,3.54-13.12,6.32-4.76-10.78-22.07-50.06-22.07-50.06l-3.76.79.9-1.63.06-.04s-.03.02-.05.03l-.04.02c-1.53.87-3.04,1.78-4.61,2.8l-.89.58v.25l-.41.19-.22.45h-.68s-.48.33-.48.33c-.31.21-.55.37-.76.55l-.17.12c-.74.5-1.5,1.06-2.22,1.61-.93.69-1.82,1.36-2.67,2.07l-.21.18-.02.03-.54.41-.09.09-.84.59v.08c-1.98,1.62-4.03,3.48-6.23,5.65l-1.6,1.56c-2.12,2.14-4.05,4.38-5.67,6.29l-.4.48c-3.34,4.02-6.4,8.34-9.1,12.86l-1.12,1.87,1.98.92c13.06,6.05,26.08,12.06,39.15,18.09,2.33,1.09,4.57,2.13,6.8,3.15,0,0,3.2,1.48,3.73,1.72-2.84,3.99-5.03,8.34-6.54,12.99l-52.05-22.03-.69,1.97c-1.64,4.66-2.97,9.48-3.94,14.31l-.47,2.35h.04c-.3,1.57-.58,3.35-.87,5.73l-.27,2.17,56.83.85c-.64,3.17-.97,6.42-.97,9.69,0,2.09.14,4.22.42,6.34l-38.11.42-18.46.22.18,2.11c.5,5.73,1.48,11.45,2.92,17.02.59,2.4,1.38,5.03,2.4,8.02l.68,2.01,1.95-.83c5.07-2.17,10.15-4.32,15.24-6.48l11.12-4.71c7.92-3.35,15.84-6.7,23.72-10.07,1.41,4.68,3.51,9.09,6.27,13.15l-15.72,6.92c-11.59,5.13-24.18,10.69-34.23,15.1l-2,.88,1.09,1.9c8.98,15.64,21.87,28.77,37.29,37.97l1.87,1.12.92-1.98c3.91-8.45,7.81-16.89,11.71-25.32l11.2-24.22c3.99,2.84,8.34,5.03,12.98,6.54l-10.57,24.97c-3.63,8.57-7.26,17.14-10.64,25.17l-.81,1.92,1.96.69c7.19,2.54,14.72,4.31,22.39,5.24l2.17.26.85-56.83c3.18.64,6.43.97,9.7.97,2.09,0,4.22-.14,6.34-.42.13,11.95.27,25.12.42,37.85Z"/>
  </g>
</svg>