<?xml version="1.0" encoding="UTF-8"?>
<svg id="Layer_2" xmlns="http://www.w3.org/2000/svg" viewBox="0 0 85.05 98.94">
  <defs>
    <style>
      .cls-1 {
        fill: #f5d000;
      }
    </style>
  </defs>
  <g id="Layer_1-2" data-name="Layer_1">
    <g>
      <path class="cls-1" d="M0,23.15c.09-4.63-.09-8.31,1.66-11.69.25-.47.45-.98.76-1.4C6.46,4.58,11.88,1.24,18.55.13c3.19-.53,5.97.55,7.67,3.61,3.19,5.74,5.08,11.88,5.8,18.4.31,2.85-1.05,4.76-3.37,5.95-1.99,1.03-4.18,1.68-6.29,2.48-1.04.39-2.12.67-3.12,1.13-1.8.84-2.36,1.9-1.75,3.77,1.28,3.91,2.37,7.94,4.16,11.62,4.01,8.29,8.6,16.27,14.75,23.22,1,1.13,2.08,2.2,3.17,3.24,1.24,1.18,2.28,1.32,3.72.36,1.03-.69,1.92-1.57,2.89-2.35,1.68-1.37,3.28-2.88,5.08-4.07,2.49-1.65,5.01-1.63,7.5.31,4.75,3.7,8.86,7.96,12.04,13.08,2.28,3.67,2.08,6.55-.68,9.9-3.39,4.11-7.99,6.27-13.01,7.59-3.97,1.04-7.79.67-11.48-1.3-11.02-5.89-20.59-13.51-27.88-23.72-4.76-6.66-8.82-13.78-12.03-21.32C2.58,44.72,1.03,36.98.36,29.07c-.19-2.3-.28-4.61-.36-5.92Z"/>
      <path class="cls-1" d="M85.05,49.05c-.62,3.84-1.16,7.7-1.88,11.53-.38,2.02-2.29,3.17-4.06,2.72-1.96-.5-2.99-2.24-2.5-4.31,3-12.49.87-23.98-6.85-34.28-5.29-7.05-12.3-11.7-20.78-14.12-1.58-.45-2.76-1.27-2.96-3.01-.29-2.51,1.89-4.31,4.39-3.61,10.81,3,19.47,9.1,25.9,18.28,5.61,8.01,8.33,16.98,8.42,26.75.11.02.22.03.33.05Z"/>
      <path class="cls-1" d="M72.16,49.37c-.37,2.35-.73,5.16-1.28,7.93-.4,2.03-2.24,3.17-4.04,2.73-2.03-.49-3.06-2.23-2.51-4.4,3.78-14.83-5.25-29.1-18.87-32.82-2.21-.6-3.26-2.4-2.68-4.31.6-1.96,2.37-2.87,4.57-2.17,13.41,4.26,21.44,13.33,24.13,27.12.35,1.78.42,3.61.68,5.92Z"/>
      <path class="cls-1" d="M59.35,48.91c-.24,1.62-.41,3.25-.75,4.85-.45,2.11-2.22,3.32-4.06,2.94-1.94-.41-3.13-2.27-2.58-4.4,1.95-7.51-2.66-15.16-9.92-17.17-1.81-.5-2.8-1.96-2.67-3.52.13-1.59,1.33-2.94,2.96-3.12.67-.07,1.41.1,2.07.3,8.79,2.69,14.82,10.89,14.95,20.12Z"/>
    </g>
  </g>
</svg>