<?xml version="1.0" encoding="UTF-8"?>
<svg id="Layer_2" xmlns="http://www.w3.org/2000/svg" xmlns:xlink="http://www.w3.org/1999/xlink" viewBox="0 0 1365.47 356.42">
  <defs>
    <style>
      .cls-1, .cls-2 {
        fill: none;
      }

      .cls-3 {
        clip-path: url(#clippath-1);
      }

      .cls-2 {
        stroke: #000;
        stroke-miterlimit: 10;
        stroke-width: 4px;
      }

      .cls-4 {
        clip-path: url(#clippath);
      }
    </style>
    <clipPath id="clippath">
      <rect class="cls-1" x="0" y="0" width="1365.47" height="356.42"/>
    </clipPath>
    <clipPath id="clippath-1">
      <rect class="cls-2" x="-477.18" y="1.77" width="2998.57" height="352.51"/>
    </clipPath>
  </defs>
  <g id="Layer_1-2" data-name="Layer_1">
    <g class="cls-4">
      <g>
        <rect class="cls-2" x="-477.18" y="1.77" width="2998.57" height="352.51"/>
        <text/>
        <path class="cls-2" d="M1716.09,327.93c-10.51-143.19-108.16-260.32-239.7-300.31h249.5c32.67,157.52,171.32,270.85,333.36,270.85,162.05,0,300.7-113.33,333.37-270.85h117.09s0,300.31,0,300.31h-793.62ZM350.11,327.93C339.6,184.74,241.95,67.6,110.41,27.62h249.51c32.66,157.53,171.31,270.85,333.37,270.85,162.05,0,300.7-113.33,333.35-270.85h250.02c-131.54,39.99-229.19,157.12-239.7,300.31H350.11ZM-465.5,327.93V27.61s376.19,0,376.19,0c-131.54,39.99-229.19,157.12-239.7,300.31h-136.49Z"/>
        <path class="cls-2" d="M1726.78,316.25c-12.48-120.69-84.27-223.62-189.91-276.95h179.65c37.18,157.51,179.81,270.85,342.74,270.85,162.93,0,305.56-113.34,342.74-270.85h96.04s0,276.95,0,276.95h-771.25ZM360.8,316.25c-12.48-120.69-84.27-223.62-189.91-276.95h179.66c37.17,157.51,179.79,270.85,342.74,270.85,162.94,0,305.56-113.34,342.73-270.85h180.17c-105.65,53.33-177.43,156.26-189.91,276.95H360.8ZM-453.82,316.25V39.3s304.03,0,304.03,0c-105.65,53.33-177.43,156.26-189.91,276.95h-114.11Z"/>
        <path class="cls-2" d="M2168.82,304.57c116.26-37.41,210.31-132.45,242.29-253.59h75.24s0,253.59,0,253.59h-317.53ZM1737.17,304.57c-13.81-104.48-71.09-196.18-157.11-253.59h127.34c31.98,121.14,126.03,216.18,242.29,253.59h-212.52ZM802.86,304.57c116.26-37.41,210.3-132.45,242.28-253.59h127.87c-86.02,57.41-143.31,149.11-157.12,253.59h-213.03ZM371.19,304.56c-13.81-104.48-71.09-196.18-157.11-253.59h127.35c31.97,121.14,126.03,216.18,242.29,253.59h-212.52ZM-442.14,304.56V50.98s249.16,0,249.16,0c-86.02,57.41-143.31,149.11-157.12,253.59h-92.05Z"/>
        <path class="cls-2" d="M2227.67,292.89c92.46-47.05,163.42-130.97,192.32-230.23h54.68s0,230.23,0,230.23h-247ZM1747.27,292.88c-14.53-90.9-61.63-172.75-131.83-230.23h83.08c28.9,99.26,99.86,183.18,192.32,230.23h-143.57ZM861.7,292.88c92.45-47.05,163.42-130.97,192.31-230.23h83.6c-70.2,57.48-117.3,139.32-131.83,230.23h-144.08ZM381.29,292.88c-14.53-90.9-61.63-172.75-131.83-230.23h83.09c28.9,99.25,99.86,183.18,192.32,230.23h-143.58ZM-430.46,292.88V62.66s202.1,0,202.1,0c-70.2,57.48-117.3,139.32-131.83,230.23h-70.27Z"/>
        <path class="cls-2" d="M2270.99,281.2c74.76-49.19,130.92-122.46,157.66-206.87h34.34s0,206.87,0,206.87h-192ZM1757.1,281.2c-14.76-79.32-53.59-151.49-110.96-206.87h43.73c26.74,84.41,82.9,157.68,157.66,206.87h-90.42ZM905.02,281.2c74.75-49.19,130.91-122.46,157.65-206.87h44.25c-57.37,55.38-96.21,127.55-110.96,206.87h-90.93ZM391.12,281.2c-14.76-79.32-53.59-151.49-110.96-206.87h43.74c26.74,84.41,82.9,157.68,157.65,206.87h-90.43ZM-418.78,281.2V74.34s159.72,0,159.72,0c-57.37,55.38-96.21,127.55-110.96,206.87h-48.75Z"/>
        <path class="cls-2" d="M2307.01,269.52c60.14-47.81,105.57-111.69,130.09-183.5h14.21s0,183.5,0,183.5h-144.3ZM1766.69,269.52c-4.58-21.76-10.89-42.88-18.85-63.26,18.7,23.24,40.05,44.49,63.66,63.26h-44.81ZM941.04,269.52c24.04-19.11,45.73-40.79,64.67-64.52-8.19,20.76-14.67,42.32-19.35,64.52h-45.32ZM400.71,269.52c-4.59-21.76-10.9-42.89-18.86-63.27,18.71,23.24,40.05,44.5,63.67,63.27h-44.81ZM-407.1,269.52V86.02s120.52,0,120.52,0c-46.62,51.76-78.5,114.55-93.04,183.5h-27.48ZM1064.81,103.18c2.24-5.67,4.34-11.38,6.32-17.16h8.28c-5.04,5.59-9.9,11.32-14.59,17.16ZM321.26,101.94c-4.38-5.41-8.91-10.72-13.59-15.92h7.76c1.83,5.35,3.77,10.66,5.83,15.92ZM1687.23,101.92c-4.38-5.41-8.9-10.71-13.58-15.9h7.76c1.83,5.35,3.76,10.64,5.82,15.9Z"/>
        <g>
          <g class="cls-3">
            <path class="cls-2" d="M79.95,505.23c17.19,39.85,34.2,79.26,51.34,118.98,16.46-6.09,30.89-14.57,44.86-24.39,1.34,1.8,2.53,3.21,3.52,4.75,1.37,2.13,2.62,4.35,3.87,6.56.88,1.55.75,2.82-.95,3.85-9.62,5.83-19.02,12.06-28.87,17.49-8.73,4.81-17.92,8.79-26.93,13.08-1.11.53-2.38.72-3.9,1.16-18.96-45.18-37.82-90.12-56.56-134.79-9,2.35-17.16,4.91-25.5,6.54-8.33,1.63-16.84,2.33-25.72,3.5-.9,30.6.63,61.37,1.79,92.75-9.63.48-18.77.93-27.93,1.38,0,10.91,0,21.68,0,32.52,1.05.29,1.68.62,2.3.62,11.74-.1,23.49-.04,35.23-.45,5.81-.2,11.58-1.36,17.38-1.94,3.86-.39,5.38-.49,5.8,4.36.34,3.86,1.4,7.65,2.07,11.48.15.87.02,1.79.02,2.58-8.62,3.93-70.81,4.22-78.28.35-.08-.84-.26-1.83-.27-2.82-.03-4.24.03-8.47-.02-12.71-.15-13.8-.31-27.6-.52-41.4-.04-2.53-.34-5.06-.42-7.6-.03-.89.23-1.78.42-3.09,7.94.83,15.67,1.65,24.04,2.53.1-2.48.24-4.43.24-6.38.02-11.34,0-22.67,0-34.01,0-6.34.07-12.67.09-19.01.02-5.51.04-11.01.02-16.52,0-1.08-.14-2.16-.26-3.8-15.54-1.18-30.4-5.07-45.01-10.65-1.96,4.36-3.72,8.18-5.4,12.04-10.11,23.2-20.19,46.42-30.3,69.63-1.42,3.26-2.32,3.63-5.41,2.01-6.37-3.33-12.69-6.76-19.05-10.12-.86-.45-1.8-.73-2.99-1.2-8.85,15.84-17.56,31.44-26.48,47.41-4.69-2.56-8.83-4.82-13.3-7.26,8.38-16.14,16.52-31.8,24.87-47.87-3.7-2.55-7.26-4.99-11.09-7.63,2.15-4.64,5.29-8.1,8.44-12.15,10.31,6.85,20.23,13.99,32.04,19.28,11.32-23.66,22.54-47.12,34.06-71.19-14.07-7.88-26.53-17.23-37.55-28.36-11.02-11.13-20-23.81-27.58-38.35-39.8,16.97-79.1,34.52-118.84,52,6.14,16.2,14.68,30.58,24.94,44.66-4.68,3.06-8.87,5.79-13.54,8.85-13.15-19.5-25.08-39.14-34-61.11,1.41-.91,2.61-1.96,3.99-2.55,18.12-7.75,36.28-15.43,54.42-23.16,16.19-6.9,32.35-13.87,48.53-20.78,8.72-3.72,17.46-7.37,26.19-11.06.46-.19.87-.48,1.82-1.01-5.55-16.35-9.48-33.12-10.16-50.91-31.19-.31-61.8,1.11-93.04,2.56-.7-9.62-1.37-18.75-2.03-27.85-3-1.28-28.99-.56-33.54,1.11.18,9.55-.5,19.31.45,29.09.94,9.73,1.81,19.46,2.75,29.63-6.07,1.18-12.11,2.36-18.59,3.62-.35-2.24-.65-4.04-.91-5.84-2.29-16.41-2.21-32.92-2.01-49.42.08-7.1.69-14.19,1-21.29.1-2.26,1.4-2.83,3.36-2.82,6.44.01,12.87.04,19.31-.03,14.13-.15,28.27-.35,42.4-.51,1.23-.01,2.45.16,3.86.26-.71,8.03-1.38,15.71-2.09,23.7,26.77,0,52.84,0,79.33,0,1.76-15.65,4.96-30.62,10.74-45.5-28.68-12.19-56.92-24.21-85.43-36.33,2.64-9.58,8.89-16.97,12.41-26.37-15.74-8.56-31.42-17.09-47.66-25.93,2.41-4.44,4.69-8.66,7.24-13.36,16.11,8.14,31.76,16.05,48.06,24.29,1.29-1.89,2.52-3.7,3.76-5.51,1.27-1.85,2.54-3.7,4.14-6.02,4.17,3.02,7.95,5.76,12.24,8.86-7.56,10.18-14.21,20.46-19.41,32.1,23.93,11.26,47.52,22.37,71.45,33.64,15.77-28.64,37.75-50.42,66.81-65.8-17.55-39.5-35-78.79-52.72-118.68-15.93,6.87-30.55,14.78-44.56,25.32-3-4.5-5.84-8.75-8.94-13.4,19.67-13.56,39.32-25.66,61.37-34.29.63.99,1.33,1.81,1.74,2.76,11.69,27.13,23.34,54.29,35.03,81.42,6.84,15.86,13.74,31.69,20.64,47.52.42.96,1.06,1.83,1.69,2.9,16.42-6.21,33.2-9.43,51.09-10.48-1.01-31.01-2-61.47-3-92.29,9.12-2.2,18.35-2.3,28.26-1.77-.43-11.47-.85-22.51-1.27-33.77-10.33,0-20.13-.38-29.89.11-9.74.49-19.43,1.86-29.61,2.89-1.21-5.98-2.4-11.9-3.63-18,2.68-1.79,5.65-1.63,8.4-1.97,15.65-1.91,31.37-2.56,47.11-2.07,6.75.21,13.49.95,20.23,1.41,2.56.17,3.42,1.47,3.43,3.98.1,16.17.28,32.34.49,48.51.06,4.31.34,8.62.46,12.93.03.97-.19,1.94-.31,3.08-7.99,0-15.56-2.92-23.67-1.46-.13,1.11-.37,2.16-.35,3.21.11,6.68.39,13.37.42,20.05.08,17.03.06,34.05.08,51.08,0,4.66.15,4.66,4.76,5.12,13.03,1.29,25.71,4.21,38,8.73.56.2,1.11.43,1.67.6.23.07.5.01,1.42.01,11.84-27.99,23.77-56.22,35.99-85.11,3.02,1.31,5.81,2.36,8.47,3.69,4.84,2.42,9.6,5.02,14.42,7.49,1,.51,2.14.76,3.33,1.17,8.61-15.88,17.05-31.45,25.61-47.21,5.15,1.76,9.31,4.08,13.33,7.28-4.13,8.19-8.13,16.1-12.12,24.02-3.96,7.87-8.29,15.57-11.84,23.61,3.88,3.2,8.59,4.13,11.36,8.54-2.86,3.7-5.74,7.44-8.78,11.37-10.38-7.29-20.32-14.35-32.03-18.9-11.19,24.02-22.61,47.38-32.97,71.51,27.91,15.22,49.46,36.28,64.68,64.51,39.41-18,78.38-36.1,117.76-54.46-2.59-8.45-7.12-15.59-11.41-22.78-4.27-7.17-9.08-14.02-14-21.54,3.95-2.75,8.11-5.66,12.85-8.96,14.03,19.16,26.11,38.86,35.43,61.05-22.31,10.43-44.61,20.27-66.84,30.25-22.23,9.97-44.38,20.11-66.96,30.35,1.14,3.42,2.21,6.77,3.36,10.1,3.84,11.09,6.45,22.45,7.25,34.17.45,6.52.3,6.56,6.64,6.37,10.82-.33,21.65-.57,32.46-1.09,15.03-.72,30.05-1.64,45.07-2.53,2.11-.12,4.2-.5,6.29-.8,2.15-.31,3.43.37,3.58,2.74.48,7.59.99,15.19,1.52,22.78.07.97.28,1.92.4,2.77,3.17,0,6.03.09,8.88-.02,7.26-.29,14.52-.7,21.79-1,2-.08,2.89-.97,2.93-2.98.21-11.95-.2-23.87-1.78-35.72-.77-5.78-1.77-11.53-2.6-17.31-.15-1.06-.02-2.16-.02-3.24.66-.39,1.13-.84,1.66-.96,4.96-1.08,9.93-2.14,14.91-3.12,1.56-.31,2.4.61,2.55,2.11,1.05,10,2.38,19.99,3.03,30.02.58,8.94.57,17.94.51,26.9-.04,5.57-.63,11.14-1.04,16.71-.06.8-.47,1.57-.85,2.78-22.39.78-44.73,1.56-67.52,2.35.16-8.07,2.42-15.79.93-24.26-26.09.6-52.15,1.19-78.84,1.8-.77,15.65-4.16,30.64-9.55,45.53,29.03,11.72,57.53,23.22,86.55,34.93-1.76,3.96-3.18,7.44-4.83,10.82-1.97,4.03-4.15,7.96-6.16,11.97-.51,1.01-.72,2.16-1.16,3.53,16.13,8.39,31.99,16.64,48.21,25.08-2.39,4.38-4.37,8.28-6.68,11.98-.36.57-2.41.63-3.34.2-5.9-2.75-11.7-5.73-17.56-8.58-8.6-4.19-17.21-8.35-25.83-12.49-.73-.35-1.58-.45-2.62-.73-2.31,3.64-4.55,7.17-6.96,10.98-4.96-1.74-8.31-5.3-12.61-8.33,7.3-10.07,13.4-20.46,18.28-31.4-1.53-2.01-66.43-31.44-71.94-32.6-15.92,29.72-38.7,53.01-69.66,68.88ZM46.78,391.84c1.38-2.86,2.67-5.23,3.69-7.7,1.42-3.43,1.93-3.8,5.49-2.5,5.64,2.07,11.26,4.19,16.86,6.38,21.35,8.38,42.68,16.8,64.03,25.18.88.35,1.86.45,2.67.64,4.36-6.93,9.79-33.86,7.7-38.26-.87-.06-1.87-.18-2.86-.2-28.69-.37-57.38-.73-86.06-1.13-1.28-.02-2.56-.43-3.92-.67,0-4.79,0-9.19,0-13.6.9-.2,1.47-.41,2.04-.44,7.09-.35,14.19-.91,21.28-.95,22.19-.13,44.37-.05,66.56-.07,1.14,0,2.28-.18,3.26-.26,2.47-6.38-5.46-39.88-9.96-43.56-27.97,12.54-56.17,25.18-84.97,38.08-2.18-4.22-4.23-8.17-6.57-12.67,28.65-13.24,56.93-26.31,85.04-39.3-.09-11.91-44.32-55.74-55.93-55.28-12.55,28.03-25.21,56.29-37.97,84.78-4.01-1.92-7.47-3.57-11.24-5.38.38-1.49.6-2.89,1.1-4.19,1.04-2.68,2.25-5.3,3.35-7.95,9.98-24,19.95-48.01,29.9-72.02.34-.82.44-1.74.76-3.02-12.4-4.86-24.99-7.71-38.28-8.92-1.21,31.65-.99,62.65-3.4,93.36-5.07,0-9.57,0-14.3,0-.11-1.51-.28-2.67-.28-3.82-.02-12.45-.14-24.91.01-37.36.2-15.99.65-31.98.93-47.97.03-1.43-.39-2.87-.61-4.42-15.4.22-29.54,3.65-44.07,8.98,12.52,28.99,24.83,57.52,37.31,86.42-4.33,2.12-8.3,4.06-12.87,6.3-12.8-28.86-25.51-57.51-38.17-86.05-16.63,4.56-56.28,44-57.11,56.71,28.14,12.77,56.42,25.6,85.01,38.58-2.1,4.17-3.88,7.73-5.81,11.57-28.93-12.05-57.53-23.96-85.99-35.82-4.41,5.45-10.52,33.17-8.57,38.43.96.07,2.04.19,3.11.23,5.07.16,10.14.3,15.21.46,17.41.53,34.83,1.02,52.24,1.6,5.24.18,10.47.48,15.69.93,6.11.53,6.1.64,6.09,6.84,0,2.49,0,4.98,0,7.76-31.62.96-62.58-.47-94.05-.88.21,2.87.38,4.93.52,7,.79,11.64,3.05,22.98,6.99,33.97.4,1.12,1.13,2.13,1.76,3.3,29.23-11.71,57.42-24.8,86.14-36.24,3.19,4.52,5.68,10.53,5.31,13.1-28.1,12.27-56.44,24.64-84.58,36.93-1.02,11.29,41.93,55.55,55.73,57.51,12.97-28.08,25.99-56.28,39.14-84.76,4.04,2.19,7.58,4.12,11.37,6.18-1.63,3.7-3.06,6.84-4.41,10.01-5.85,13.79-11.68,27.6-17.53,41.39-4.46,10.52-8.98,21.01-13.41,31.55-.42,1-.4,2.19-.61,3.49,12.47,4.47,24.71,7.94,37.84,8.84.28-3.18.63-5.77.72-8.36.38-10.74.65-21.48,1.03-32.21.49-13.95,1-27.9,1.6-41.84.15-3.58.69-7.14,1.06-10.78,4.94,0,9.34,0,13.95,0,.24,3.7.67,7.06.65,10.41-.05,10.92-.23,21.84-.43,32.76-.13,7.19-.3,14.38-.58,21.57-.17,4.48-.76,8.94-.84,13.41-.09,5.03.17,10.06.29,15.52,15.51-.04,29.69-3.27,44.38-8.19-11.75-29.33-24.52-57.74-36.28-86.92,4.67-1.83,8.31-4.9,13.24-5.59,12.28,28.93,24.4,57.54,36.89,85.91,19.6-6.65,59.52-47.08,59.34-60.2-28.29-12.09-56.78-24.26-85.62-36.59Z"/>
            <path class="cls-2" d="M762.81,102.98c17.19,39.85,34.2,79.26,51.34,118.98,16.46-6.09,30.89-14.57,44.86-24.39,1.34,1.8,2.53,3.21,3.52,4.75,1.37,2.13,2.62,4.35,3.87,6.56.88,1.55.75,2.82-.95,3.85-9.62,5.83-19.02,12.06-28.87,17.49-8.73,4.81-17.92,8.79-26.93,13.08-1.11.53-2.38.72-3.9,1.16-18.96-45.18-37.82-90.12-56.56-134.79-9,2.35-17.16,4.91-25.5,6.54-8.33,1.63-16.84,2.33-25.72,3.5-.9,30.6.63,61.37,1.79,92.75-9.63.48-18.77.93-27.93,1.38,0,10.91,0,21.68,0,32.52,1.05.29,1.68.62,2.3.62,11.74-.1,23.49-.04,35.23-.45,5.81-.2,11.58-1.36,17.38-1.94,3.86-.39,5.38-.49,5.8,4.36.34,3.86,1.4,7.65,2.07,11.48.15.87.02,1.79.02,2.58-8.62,3.93-70.81,4.22-78.28.35-.08-.84-.26-1.83-.27-2.82-.03-4.24.03-8.47-.02-12.71-.15-13.8-.31-27.6-.52-41.4-.04-2.53-.34-5.06-.42-7.6-.03-.89.23-1.78.42-3.09,7.94.83,15.67,1.65,24.04,2.53.1-2.48.24-4.43.24-6.38.02-11.34,0-22.67,0-34.01,0-6.34.07-12.67.09-19.01.02-5.51.04-11.01.02-16.52,0-1.08-.14-2.16-.26-3.8-15.54-1.18-30.4-5.07-45.01-10.65-1.96,4.36-3.72,8.18-5.4,12.04-10.11,23.2-20.19,46.42-30.3,69.63-1.42,3.26-2.32,3.63-5.41,2.01-6.37-3.33-12.69-6.76-19.05-10.12-.86-.45-1.8-.73-2.99-1.2-8.85,15.84-17.56,31.44-26.48,47.41-4.69-2.56-8.83-4.82-13.3-7.26,8.38-16.14,16.52-31.8,24.87-47.87-3.7-2.55-7.26-4.99-11.09-7.63,2.15-4.64,5.29-8.1,8.44-12.15,10.31,6.85,20.23,13.99,32.04,19.28,11.32-23.66,22.54-47.12,34.06-71.19-14.07-7.88-26.53-17.23-37.55-28.36-11.02-11.13-20-23.81-27.58-38.35-39.8,16.97-79.1,34.52-118.84,52,6.14,16.2,14.68,30.58,24.94,44.66-4.68,3.06-8.87,5.79-13.54,8.85-13.15-19.5-25.08-39.14-34-61.11,1.41-.91,2.61-1.96,3.99-2.55,18.12-7.75,36.28-15.43,54.42-23.16,16.19-6.9,32.35-13.87,48.53-20.78,8.72-3.72,17.46-7.37,26.19-11.06.46-.19.87-.48,1.82-1.01-5.55-16.35-9.48-33.12-10.16-50.91-31.19-.31-61.8,1.11-93.04,2.56-.7-9.62-1.37-18.75-2.03-27.85-3-1.28-28.99-.56-33.54,1.11.18,9.55-.5,19.31.45,29.09.94,9.73,1.81,19.46,2.75,29.63-6.07,1.18-12.11,2.36-18.59,3.62-.35-2.24-.65-4.04-.91-5.84-2.29-16.41-2.21-32.92-2.01-49.42.08-7.1.69-14.19,1-21.29.1-2.26,1.4-2.83,3.36-2.82,6.44.01,12.87.04,19.31-.03,14.13-.15,28.27-.35,42.4-.51,1.23-.01,2.45.16,3.86.26-.71,8.03-1.38,15.71-2.09,23.7,26.77,0,52.84,0,79.33,0,1.76-15.65,4.96-30.62,10.74-45.5-28.68-12.19-56.92-24.21-85.43-36.33,2.64-9.58,8.89-16.97,12.41-26.37-15.74-8.56-31.42-17.09-47.66-25.93,2.41-4.44,4.69-8.66,7.24-13.36,16.11,8.14,31.76,16.05,48.06,24.29,1.29-1.89,2.52-3.7,3.76-5.51,1.27-1.85,2.54-3.7,4.14-6.02,4.17,3.02,7.95,5.76,12.24,8.86-7.56,10.18-14.21,20.46-19.41,32.1,23.93,11.26,47.52,22.37,71.45,33.64,15.77-28.64,37.75-50.42,66.81-65.8-17.55-39.5-35-78.79-52.72-118.68-15.93,6.87-30.55,14.78-44.56,25.32-3-4.5-5.84-8.75-8.94-13.4,19.67-13.56,39.32-25.66,61.37-34.29.63.99,1.33,1.81,1.74,2.76,11.69,27.13,23.34,54.29,35.03,81.42,6.84,15.86,13.74,31.69,20.64,47.52.42.96,1.06,1.83,1.69,2.9,16.42-6.21,33.2-9.43,51.09-10.48-1.01-31.01-2-61.47-3-92.29,9.12-2.2,18.35-2.3,28.26-1.77-.43-11.47-.85-22.51-1.27-33.77-10.33,0-20.13-.38-29.89.11-9.74.49-19.43,1.86-29.61,2.89-1.21-5.98-2.4-11.9-3.63-18,2.68-1.79,5.65-1.63,8.4-1.97,15.65-1.91,31.37-2.56,47.11-2.07,6.75.21,13.49.95,20.23,1.41,2.56.17,3.42,1.47,3.43,3.98.1,16.17.28,32.34.49,48.51.06,4.31.34,8.62.46,12.93.03.97-.19,1.94-.31,3.08-7.99,0-15.56-2.92-23.67-1.46-.13,1.11-.37,2.16-.35,3.21.11,6.68.39,13.37.42,20.05.08,17.03.06,34.05.08,51.08,0,4.66.15,4.66,4.76,5.12,13.03,1.29,25.71,4.21,38,8.73.56.2,1.11.43,1.67.6.23.07.5.01,1.42.01,11.84-27.99,23.77-56.22,35.99-85.11,3.02,1.31,5.81,2.36,8.47,3.69,4.84,2.42,9.6,5.02,14.42,7.49,1,.51,2.14.76,3.33,1.17,8.61-15.88,17.05-31.45,25.61-47.21,5.15,1.76,9.31,4.08,13.33,7.28-4.13,8.19-8.13,16.1-12.12,24.02-3.96,7.87-8.29,15.57-11.84,23.61,3.88,3.2,8.59,4.13,11.36,8.54-2.86,3.7-5.74,7.44-8.78,11.37-10.38-7.29-20.32-14.35-32.03-18.9-11.19,24.02-22.61,47.38-32.97,71.51,27.91,15.22,49.46,36.28,64.68,64.51,39.41-18,78.38-36.1,117.76-54.46-2.59-8.45-7.12-15.59-11.41-22.78-4.27-7.17-9.08-14.02-14-21.54,3.95-2.75,8.11-5.66,12.85-8.96,14.03,19.16,26.11,38.86,35.43,61.05-22.31,10.43-44.61,20.27-66.84,30.25-22.23,9.97-44.38,20.11-66.96,30.35,1.14,3.42,2.21,6.77,3.36,10.1,3.84,11.09,6.45,22.45,7.25,34.17.45,6.52.3,6.56,6.64,6.37,10.82-.33,21.65-.57,32.46-1.09,15.03-.72,30.05-1.64,45.07-2.53,2.11-.12,4.2-.5,6.29-.8,2.15-.31,3.43.37,3.58,2.74.48,7.59.99,15.19,1.52,22.78.07.97.28,1.92.4,2.77,3.17,0,6.03.09,8.88-.02,7.26-.29,14.52-.7,21.79-1,2-.08,2.89-.97,2.93-2.98.21-11.95-.2-23.87-1.78-35.72-.77-5.78-1.77-11.53-2.6-17.31-.15-1.06-.02-2.16-.02-3.24.66-.39,1.13-.84,1.66-.96,4.96-1.08,9.93-2.14,14.91-3.12,1.56-.31,2.4.61,2.55,2.11,1.05,10,2.38,19.99,3.03,30.02.58,8.94.57,17.94.51,26.9-.04,5.57-.63,11.14-1.04,16.71-.06.8-.47,1.57-.85,2.78-22.39.78-44.73,1.56-67.52,2.35.16-8.07,2.42-15.79.93-24.26-26.09.6-52.15,1.19-78.84,1.8-.77,15.65-4.16,30.64-9.55,45.53,29.03,11.72,57.53,23.22,86.55,34.93-1.76,3.96-3.18,7.44-4.83,10.82-1.97,4.03-4.15,7.96-6.16,11.97-.51,1.01-.72,2.16-1.16,3.53,16.13,8.39,31.99,16.64,48.21,25.08-2.39,4.38-4.37,8.28-6.68,11.98-.36.57-2.41.63-3.34.2-5.9-2.75-11.7-5.73-17.56-8.58-8.6-4.19-17.21-8.35-25.83-12.49-.73-.35-1.58-.45-2.62-.73-2.31,3.64-4.55,7.17-6.96,10.98-4.96-1.74-8.31-5.3-12.61-8.33,7.3-10.07,13.4-20.46,18.28-31.4-1.53-2.01-66.43-31.44-71.94-32.6-15.92,29.72-38.7,53.01-69.66,68.88ZM729.64-10.41c1.38-2.86,2.67-5.23,3.69-7.7,1.42-3.43,1.93-3.8,5.49-2.5,5.64,2.07,11.26,4.19,16.86,6.38,21.35,8.38,42.68,16.8,64.03,25.18.88.35,1.86.45,2.67.64,4.36-6.93,9.79-33.86,7.7-38.26-.87-.06-1.87-.18-2.86-.2-28.69-.37-57.38-.73-86.06-1.13-1.28-.02-2.56-.43-3.92-.67,0-4.79,0-9.19,0-13.6.9-.2,1.47-.41,2.04-.44,7.09-.35,14.19-.91,21.28-.95,22.19-.13,44.37-.05,66.56-.07,1.14,0,2.28-.18,3.26-.26,2.47-6.38-5.46-39.88-9.96-43.56-27.97,12.54-56.17,25.18-84.97,38.08-2.18-4.22-4.23-8.17-6.57-12.67,28.65-13.24,56.93-26.31,85.04-39.3-.09-11.91-44.32-55.74-55.93-55.28-12.55,28.03-25.21,56.29-37.97,84.78-4.01-1.92-7.47-3.57-11.24-5.38.38-1.49.6-2.89,1.1-4.19,1.04-2.68,2.25-5.3,3.35-7.95,9.98-24,19.95-48.01,29.9-72.02.34-.82.44-1.74.76-3.02-12.4-4.86-24.99-7.71-38.28-8.92-1.21,31.65-.99,62.65-3.4,93.36-5.07,0-9.57,0-14.3,0-.11-1.51-.28-2.67-.28-3.82-.02-12.45-.14-24.91.01-37.36.2-15.99.65-31.98.93-47.97.03-1.43-.39-2.87-.61-4.42-15.4.22-29.54,3.65-44.07,8.98,12.52,28.99,24.83,57.52,37.31,86.42-4.33,2.12-8.3,4.06-12.87,6.3-12.8-28.86-25.51-57.51-38.17-86.05-16.63,4.56-56.28,44-57.11,56.71,28.14,12.77,56.42,25.6,85.01,38.58-2.1,4.17-3.88,7.73-5.81,11.57-28.93-12.05-57.53-23.96-85.99-35.82-4.41,5.45-10.52,33.17-8.57,38.43.96.07,2.04.19,3.11.23,5.07.16,10.14.3,15.21.46,17.41.53,34.83,1.02,52.24,1.6,5.24.18,10.47.48,15.69.93,6.11.53,6.1.64,6.09,6.84,0,2.49,0,4.98,0,7.76-31.62.96-62.58-.47-94.05-.88.21,2.87.38,4.93.52,7,.79,11.64,3.05,22.98,6.99,33.97.4,1.12,1.13,2.13,1.76,3.3,29.23-11.71,57.42-24.8,86.14-36.24,3.19,4.52,5.68,10.53,5.31,13.1-28.1,12.27-56.44,24.64-84.58,36.93-1.02,11.29,41.93,55.55,55.73,57.51,12.97-28.08,25.99-56.28,39.14-84.76,4.04,2.19,7.58,4.12,11.37,6.18-1.63,3.7-3.06,6.84-4.41,10.01-5.85,13.79-11.68,27.6-17.53,41.39-4.46,10.52-8.98,21.01-13.41,31.55-.42,1-.4,2.19-.61,3.49,12.47,4.47,24.71,7.94,37.84,8.84.28-3.18.63-5.77.72-8.36.38-10.74.65-21.48,1.03-32.21.49-13.95,1-27.9,1.6-41.84.15-3.58.69-7.14,1.06-10.78,4.94,0,9.34,0,13.95,0,.24,3.7.67,7.06.65,10.41-.05,10.92-.23,21.84-.43,32.76-.13,7.19-.3,14.38-.58,21.57-.17,4.48-.76,8.94-.84,13.41-.09,5.03.17,10.06.29,15.52,15.51-.04,29.69-3.27,44.38-8.19-11.75-29.33-24.52-57.74-36.28-86.92,4.67-1.83,8.31-4.9,13.24-5.59,12.28,28.93,24.4,57.54,36.89,85.91,19.6-6.65,59.52-47.08,59.34-60.2-28.29-12.09-56.78-24.26-85.62-36.59Z"/>
            <path class="cls-2" d="M1445.67,505.23c17.19,39.85,34.2,79.26,51.34,118.98,16.46-6.09,30.89-14.57,44.86-24.39,1.34,1.8,2.53,3.21,3.52,4.75,1.37,2.13,2.62,4.35,3.87,6.56.88,1.55.75,2.82-.95,3.85-9.62,5.83-19.02,12.06-28.87,17.49-8.73,4.81-17.92,8.79-26.93,13.08-1.11.53-2.38.72-3.9,1.16-18.96-45.18-37.82-90.12-56.56-134.79-9,2.35-17.16,4.91-25.5,6.54-8.33,1.63-16.84,2.33-25.72,3.5-.9,30.6.63,61.37,1.79,92.75-9.63.48-18.77.93-27.93,1.38,0,10.91,0,21.68,0,32.52,1.05.29,1.68.62,2.3.62,11.74-.1,23.49-.04,35.23-.45,5.81-.2,11.58-1.36,17.38-1.94,3.86-.39,5.38-.49,5.8,4.36.34,3.86,1.4,7.65,2.07,11.48.15.87.02,1.79.02,2.58-8.62,3.93-70.81,4.22-78.28.35-.08-.84-.26-1.83-.27-2.82-.03-4.24.03-8.47-.02-12.71-.15-13.8-.31-27.6-.52-41.4-.04-2.53-.34-5.06-.42-7.6-.03-.89.23-1.78.42-3.09,7.94.83,15.67,1.65,24.04,2.53.1-2.48.24-4.43.24-6.38.02-11.34,0-22.67,0-34.01,0-6.34.07-12.67.09-19.01.02-5.51.04-11.01.02-16.52,0-1.08-.14-2.16-.26-3.8-15.54-1.18-30.4-5.07-45.01-10.65-1.96,4.36-3.72,8.18-5.4,12.04-10.11,23.2-20.19,46.42-30.3,69.63-1.42,3.26-2.32,3.63-5.41,2.01-6.37-3.33-12.69-6.76-19.05-10.12-.86-.45-1.8-.73-2.99-1.2-8.85,15.84-17.56,31.44-26.48,47.41-4.69-2.56-8.83-4.82-13.3-7.26,8.38-16.14,16.52-31.8,24.87-47.87-3.7-2.55-7.26-4.99-11.09-7.63,2.15-4.64,5.29-8.1,8.44-12.15,10.31,6.85,20.23,13.99,32.04,19.28,11.32-23.66,22.54-47.12,34.06-71.19-14.07-7.88-26.53-17.23-37.55-28.36-11.02-11.13-20-23.81-27.58-38.35-39.8,16.97-79.1,34.52-118.84,52,6.14,16.2,14.68,30.58,24.94,44.66-4.68,3.06-8.87,5.79-13.54,8.85-13.15-19.5-25.08-39.14-34-61.11,1.41-.91,2.61-1.96,3.99-2.55,18.12-7.75,36.28-15.43,54.42-23.16,16.19-6.9,32.35-13.87,48.53-20.78,8.72-3.72,17.46-7.37,26.19-11.06.46-.19.87-.48,1.82-1.01-5.55-16.35-9.48-33.12-10.16-50.91-31.19-.31-61.8,1.11-93.04,2.56-.7-9.62-1.37-18.75-2.03-27.85-3-1.28-28.99-.56-33.54,1.11.18,9.55-.5,19.31.45,29.09.94,9.73,1.81,19.46,2.75,29.63-6.07,1.18-12.11,2.36-18.59,3.62-.35-2.24-.65-4.04-.91-5.84-2.29-16.41-2.21-32.92-2.01-49.42.08-7.1.69-14.19,1-21.29.1-2.26,1.4-2.83,3.36-2.82,6.44.01,12.87.04,19.31-.03,14.13-.15,28.27-.35,42.4-.51,1.23-.01,2.45.16,3.86.26-.71,8.03-1.38,15.71-2.09,23.7,26.77,0,52.84,0,79.33,0,1.76-15.65,4.96-30.62,10.74-45.5-28.68-12.19-56.92-24.21-85.43-36.33,2.64-9.58,8.89-16.97,12.41-26.37-15.74-8.56-31.42-17.09-47.66-25.93,2.41-4.44,4.69-8.66,7.24-13.36,16.11,8.14,31.76,16.05,48.06,24.29,1.29-1.89,2.52-3.7,3.76-5.51,1.27-1.85,2.54-3.7,4.14-6.02,4.17,3.02,7.95,5.76,12.24,8.86-7.56,10.18-14.21,20.46-19.41,32.1,23.93,11.26,47.52,22.37,71.45,33.64,15.77-28.64,37.75-50.42,66.81-65.8-17.55-39.5-35-78.79-52.72-118.68-15.93,6.87-30.55,14.78-44.56,25.32-3-4.5-5.84-8.75-8.94-13.4,19.67-13.56,39.32-25.66,61.37-34.29.63.99,1.33,1.81,1.74,2.76,11.69,27.13,23.34,54.29,35.03,81.42,6.84,15.86,13.74,31.69,20.64,47.52.42.96,1.06,1.83,1.69,2.9,16.42-6.21,33.2-9.43,51.09-10.48-1.01-31.01-2-61.47-3-92.29,9.12-2.2,18.35-2.3,28.26-1.77-.43-11.47-.85-22.51-1.27-33.77-10.33,0-20.13-.38-29.89.11-9.74.49-19.43,1.86-29.61,2.89-1.21-5.98-2.4-11.9-3.63-18,2.68-1.79,5.65-1.63,8.4-1.97,15.65-1.91,31.37-2.56,47.11-2.07,6.75.21,13.49.95,20.23,1.41,2.56.17,3.42,1.47,3.43,3.98.1,16.17.28,32.34.49,48.51.06,4.31.34,8.62.46,12.93.03.97-.19,1.94-.31,3.08-7.99,0-15.56-2.92-23.67-1.46-.13,1.11-.37,2.16-.35,3.21.11,6.68.39,13.37.42,20.05.08,17.03.06,34.05.08,51.08,0,4.66.15,4.66,4.76,5.12,13.03,1.29,25.71,4.21,38,8.73.56.2,1.11.43,1.67.6.23.07.5.01,1.42.01,11.84-27.99,23.77-56.22,35.99-85.11,3.02,1.31,5.81,2.36,8.47,3.69,4.84,2.42,9.6,5.02,14.42,7.49,1,.51,2.14.76,3.33,1.17,8.61-15.88,17.05-31.45,25.61-47.21,5.15,1.76,9.31,4.08,13.33,7.28-4.13,8.19-8.13,16.1-12.12,24.02-3.96,7.87-8.29,15.57-11.84,23.61,3.88,3.2,8.59,4.13,11.36,8.54-2.86,3.7-5.74,7.44-8.78,11.37-10.38-7.29-20.32-14.35-32.03-18.9-11.19,24.02-22.61,47.38-32.97,71.51,27.91,15.22,49.46,36.28,64.68,64.51,39.41-18,78.38-36.1,117.76-54.46-2.59-8.45-7.12-15.59-11.41-22.78-4.27-7.17-9.08-14.02-14-21.54,3.95-2.75,8.11-5.66,12.85-8.96,14.03,19.16,26.11,38.86,35.43,61.05-22.31,10.43-44.61,20.27-66.84,30.25-22.23,9.97-44.38,20.11-66.96,30.35,1.14,3.42,2.21,6.77,3.36,10.1,3.84,11.09,6.45,22.45,7.25,34.17.45,6.52.3,6.56,6.64,6.37,10.82-.33,21.65-.57,32.46-1.09,15.03-.72,30.05-1.64,45.07-2.53,2.11-.12,4.2-.5,6.29-.8,2.15-.31,3.43.37,3.58,2.74.48,7.59.99,15.19,1.52,22.78.07.97.28,1.92.4,2.77,3.17,0,6.03.09,8.88-.02,7.26-.29,14.52-.7,21.79-1,2-.08,2.89-.97,2.93-2.98.21-11.95-.2-23.87-1.78-35.72-.77-5.78-1.77-11.53-2.6-17.31-.15-1.06-.02-2.16-.02-3.24.66-.39,1.13-.84,1.66-.96,4.96-1.08,9.93-2.14,14.91-3.12,1.56-.31,2.4.61,2.55,2.11,1.05,10,2.38,19.99,3.03,30.02.58,8.94.57,17.94.51,26.9-.04,5.57-.63,11.14-1.04,16.71-.06.8-.47,1.57-.85,2.78-22.39.78-44.73,1.56-67.52,2.35.16-8.07,2.42-15.79.93-24.26-26.09.6-52.15,1.19-78.84,1.8-.77,15.65-4.16,30.64-9.55,45.53,29.03,11.72,57.53,23.22,86.55,34.93-1.76,3.96-3.18,7.44-4.83,10.82-1.97,4.03-4.15,7.96-6.16,11.97-.51,1.01-.72,2.16-1.16,3.53,16.13,8.39,31.99,16.64,48.21,25.08-2.39,4.38-4.37,8.28-6.68,11.98-.36.57-2.41.63-3.34.2-5.9-2.75-11.7-5.73-17.56-8.58-8.6-4.19-17.21-8.35-25.83-12.49-.73-.35-1.58-.45-2.62-.73-2.31,3.64-4.55,7.17-6.96,10.98-4.96-1.74-8.31-5.3-12.61-8.33,7.3-10.07,13.4-20.46,18.28-31.4-1.53-2.01-66.43-31.44-71.94-32.6-15.92,29.72-38.7,53.01-69.66,68.88ZM1412.5,391.84c1.38-2.86,2.67-5.23,3.69-7.7,1.42-3.43,1.93-3.8,5.49-2.5,5.64,2.07,11.26,4.19,16.86,6.38,21.35,8.38,42.68,16.8,64.03,25.18.88.35,1.86.45,2.67.64,4.36-6.93,9.79-33.86,7.7-38.26-.87-.06-1.87-.18-2.86-.2-28.69-.37-57.38-.73-86.06-1.13-1.28-.02-2.56-.43-3.92-.67,0-4.79,0-9.19,0-13.6.9-.2,1.47-.41,2.04-.44,7.09-.35,14.19-.91,21.28-.95,22.19-.13,44.37-.05,66.56-.07,1.14,0,2.28-.18,3.26-.26,2.47-6.38-5.46-39.88-9.96-43.56-27.97,12.54-56.17,25.18-84.97,38.08-2.18-4.22-4.23-8.17-6.57-12.67,28.65-13.24,56.93-26.31,85.04-39.3-.09-11.91-44.32-55.74-55.93-55.28-12.55,28.03-25.21,56.29-37.97,84.78-4.01-1.92-7.47-3.57-11.24-5.38.38-1.49.6-2.89,1.1-4.19,1.04-2.68,2.25-5.3,3.35-7.95,9.98-24,19.95-48.01,29.9-72.02.34-.82.44-1.74.76-3.02-12.4-4.86-24.99-7.71-38.28-8.92-1.21,31.65-.99,62.65-3.4,93.36-5.07,0-9.57,0-14.3,0-.11-1.51-.28-2.67-.28-3.82-.02-12.45-.14-24.91.01-37.36.2-15.99.65-31.98.93-47.97.03-1.43-.39-2.87-.61-4.42-15.4.22-29.54,3.65-44.07,8.98,12.52,28.99,24.83,57.52,37.31,86.42-4.33,2.12-8.3,4.06-12.87,6.3-12.8-28.86-25.51-57.51-38.17-86.05-16.63,4.56-56.28,44-57.11,56.71,28.14,12.77,56.42,25.6,85.01,38.58-2.1,4.17-3.88,7.73-5.81,11.57-28.93-12.05-57.53-23.96-85.99-35.82-4.41,5.45-10.52,33.17-8.57,38.43.96.07,2.04.19,3.11.23,5.07.16,10.14.3,15.21.46,17.41.53,34.83,1.02,52.24,1.6,5.24.18,10.47.48,15.69.93,6.11.53,6.1.64,6.09,6.84,0,2.49,0,4.98,0,7.76-31.62.96-62.58-.47-94.05-.88.21,2.87.38,4.93.52,7,.79,11.64,3.05,22.98,6.99,33.97.4,1.12,1.13,2.13,1.76,3.3,29.23-11.71,57.42-24.8,86.14-36.24,3.19,4.52,5.68,10.53,5.31,13.1-28.1,12.27-56.44,24.64-84.58,36.93-1.02,11.29,41.93,55.55,55.73,57.51,12.97-28.08,25.99-56.28,39.14-84.76,4.04,2.19,7.58,4.12,11.37,6.18-1.63,3.7-3.06,6.84-4.41,10.01-5.85,13.79-11.68,27.6-17.53,41.39-4.46,10.52-8.98,21.01-13.41,31.55-.42,1-.4,2.19-.61,3.49,12.47,4.47,24.71,7.94,37.84,8.84.28-3.18.63-5.77.72-8.36.38-10.74.65-21.48,1.03-32.21.49-13.95,1-27.9,1.6-41.84.15-3.58.69-7.14,1.06-10.78,4.94,0,9.34,0,13.95,0,.24,3.7.67,7.06.65,10.41-.05,10.92-.23,21.84-.43,32.76-.13,7.19-.3,14.38-.58,21.57-.17,4.48-.76,8.94-.84,13.41-.09,5.03.17,10.06.29,15.52,15.51-.04,29.69-3.27,44.38-8.19-11.75-29.33-24.52-57.74-36.28-86.92,4.67-1.83,8.31-4.9,13.24-5.59,12.28,28.93,24.4,57.54,36.89,85.91,19.6-6.65,59.52-47.08,59.34-60.2-28.29-12.09-56.78-24.26-85.62-36.59Z"/>
          </g>
          <rect class="cls-2" x="-477.18" y="1.77" width="2998.57" height="352.51"/>
        </g>
      </g>
    </g>
  </g>
</svg>